HIERARCHY
ROOT Hips
{
    OFFSET 0.000000 0.000000 0.000000
    CHANNELS 6 Xposition Yposition Zposition Zrotation Xrotation Yrotation
    JOINT Spine
    {
        OFFSET -0.000000 14.517291 0.000000
        CHANNELS 3 Zrotation Xrotation Yrotation
        JOINT Spine1
        {
            OFFSET -0.000000 37.558300 0.000000
            CHANNELS 3 Zrotation Xrotation Yrotation
            JOINT Neck
            {
                OFFSET -0.000000 37.404057 3.400369
                CHANNELS 3 Zrotation Xrotation Yrotation
                JOINT Head
                {
                    OFFSET -0.000000 24.785618 -3.540803
                    CHANNELS 3 Zrotation Xrotation Yrotation
                    End Site
                    {
                        OFFSET -0.000000 35.408028 0.000000
                    }
                }
            }
            JOINT LeftShoulder
            {
                OFFSET 6.992933 33.973492 -0.192664
                CHANNELS 3 Zrotation Xrotation Yrotation
                JOINT LeftArm
                {
                    OFFSET 21.527611 0.000000 0.000000
                    CHANNELS 3 Zrotation Xrotation Yrotation
                    JOINT LeftForeArm
                    {
                        OFFSET 56.353916 0.000000 0.000000
                        CHANNELS 3 Zrotation Xrotation Yrotation
                        JOINT LeftHand
                        {
                            OFFSET 47.774071 0.000000 0.000000
                            CHANNELS 3 Zrotation Xrotation Yrotation
                            End Site
                            {
                                OFFSET 26.556021 0.000000 0.000000
                            }
                        }
                    }
                }
            }
            JOINT RightShoulder
            {
                OFFSET -7.065357 33.973492 -0.192664
                CHANNELS 3 Zrotation Xrotation Yrotation
                JOINT RightArm
                {
                    OFFSET -21.527611 0.000000 0.000000
                    CHANNELS 3 Zrotation Xrotation Yrotation
                    JOINT RightForeArm
                    {
                        OFFSET -56.353916 0.000000 0.000000
                        CHANNELS 3 Zrotation Xrotation Yrotation
                        JOINT RightHand
                        {
                            OFFSET -47.774071 0.000000 0.000000
                            CHANNELS 3 Zrotation Xrotation Yrotation
                            End Site
                            {
                                OFFSET -26.556021 0.000000 0.000000
                            }
                        }
                    }
                }
            }
        }
    }
    JOINT LeftUpLeg
    {
        OFFSET 17.704014 0.000000 0.000000
        CHANNELS 3 Zrotation Xrotation Yrotation
        JOINT LeftLeg
        {
            OFFSET -0.000000 -81.181816 0.000000
            CHANNELS 3 Zrotation Xrotation Yrotation
            JOINT LeftFoot
            {
                OFFSET -0.000000 -62.821102 0.000000
                CHANNELS 3 Zrotation Xrotation Yrotation
                JOINT LeftToeBase
                {
                    OFFSET -0.000000 -11.507608 26.556021
                    CHANNELS 3 Zrotation Xrotation Yrotation
                    End Site
                    {
                        OFFSET -0.000000 0.000000 7.081605
                    }
                }
            }
        }
    }
    JOINT RightUpLeg
    {
        OFFSET -17.704014 0.000000 0.000000
        CHANNELS 3 Zrotation Xrotation Yrotation
        JOINT RightLeg
        {
            OFFSET -0.000000 -81.181816 0.000000
            CHANNELS 3 Zrotation Xrotation Yrotation
            JOINT RightFoot
            {
                OFFSET -0.000000 -62.821102 0.000000
                CHANNELS 3 Zrotation Xrotation Yrotation
                JOINT RightToeBase
                {
                    OFFSET -0.000000 -11.507608 26.556021
                    CHANNELS 3 Zrotation Xrotation Yrotation
                    End Site
                    {
                        OFFSET -0.000000 0.000000 7.081605
                    }
                }
            }
        }
    }
}
MOTION
Frames:    5
Frame Time:    0.008333
-4.349263    164.838760    -26.497751    -7.487190    -14.896868    39.779190    1.668859    -6.744012    -6.894407    17.282103    2.805170    -2.755864    35.706059    -4.232530    -2.800933    -5.778347    10.259977    -10.081093    18.936321    5.287612    -26.593821    -28.734238    20.198877    -62.528538    3.430636    -37.237808    -103.590820    -11.464916    -32.330719    -15.992517    18.162001    3.357985    -11.722585    23.266844    -4.327470    31.197886    -26.609259    -14.821411    57.774918    -4.660403    -1.232470    30.720955    11.219934    1.238051    6.431444    -4.482006    28.947001    -14.215077    9.894817    -17.437771    32.735321    0.000000    0.000000    0.000000    -103.648712    -47.323071    -57.616539    7.171131    21.371717    -4.902617    11.229033    25.989946    -17.650204    0.000000    0.000000    0.000000    
-4.316449    164.792725    -26.506186    -7.416683    -14.873006    39.765244    1.620865    -6.743907    -6.875880    17.316967    2.841442    -2.755011    35.754990    -4.157696    -2.850723    -5.795775    10.074685    -10.128874    18.935535    5.294648    -26.583712    -28.772472    20.204508    -62.533531    3.401822    -37.185707    -103.607727    -11.476342    -32.304577    -15.983604    18.190760    3.396067    -11.708276    23.267979    -4.287633    31.169004    -26.673285    -14.935087    57.623837    -4.577250    -1.335327    30.663593    11.135770    1.255861    6.493617    -4.453340    28.995417    -14.258579    9.910125    -17.468588    32.744530    0.000000    0.000000    0.000000    -103.679489    -47.320190    -57.691147    7.126304    21.306679    -4.892988    11.235692    26.027159    -17.620333    0.000000    0.000000    0.000000    
-4.283393    164.746811    -26.518351    -7.344961    -14.854638    39.747505    1.578312    -6.733669    -6.847398    17.360371    2.882580    -2.751876    35.791092    -4.122647    -2.902183    -5.836088    9.931743    -10.187729    18.920731    5.318201    -26.561680    -28.809969    20.210966    -62.564365    3.374202    -37.136604    -103.619461    -11.433196    -32.293034    -15.910577    18.193722    3.319727    -11.735760    23.243399    -4.144959    31.159359    -26.711863    -15.003903    57.449741    -4.567675    -1.435308    30.645742    11.054914    1.276635    6.552681    -4.427706    29.056263    -14.277081    9.919358    -17.504318    32.719860    0.000000    0.000000    0.000000    -103.723244    -47.304642    -57.673229    7.158820    21.240417    -4.926126    11.262400    26.053148    -17.673508    0.000000    0.000000    0.000000    
-4.252844    164.705399    -26.536095    -7.277858    -14.829597    39.726795    1.538724    -6.734081    -6.819907    17.382257    2.925480    -2.748879    35.830261    -4.067517    -2.951910    -5.854593    9.788048    -10.237822    18.926102    5.360482    -26.540550    -28.855122    20.239870    -62.620495    3.361490    -37.120567    -103.594254    -11.404984    -32.297100    -15.883236    18.217463    3.343347    -11.710637    23.228054    -4.116969    31.132595    -26.771523    -15.055801    57.306828    -4.597933    -1.507441    30.655670    10.975244    1.293941    6.579732    -4.436089    29.093918    -14.260427    9.940816    -17.525375    32.720558    0.000000    0.000000    0.000000    -103.727760    -47.322079    -57.753750    7.045146    21.171556    -4.982615    11.276587    26.119850    -17.601448    0.000000    0.000000    0.000000    
-4.226976    164.674072    -26.548941    -7.221245    -14.819507    39.707371    1.503486    -6.739513    -6.795331    17.429781    2.992694    -2.751454    35.832767    -4.031563    -2.996449    -5.859775    9.672829    -10.279060    18.917858    5.403610    -26.517231    -28.910574    20.272287    -62.671829    3.311223    -37.083061    -103.595848    -11.321372    -32.324772    -15.844940    18.220461    3.398978    -11.690068    23.227657    -4.119760    31.133986    -26.802467    -15.119727    57.194691    -4.574579    -1.580978    30.576258    10.926389    1.317559    6.578097    -4.481352    29.129208    -14.240317    9.948733    -17.545376    32.753624    0.000000    0.000000    0.000000    -103.723755    -47.315643    -57.807587    6.992841    21.113827    -5.002547    11.316810    26.143145    -17.602665    0.000000    0.000000    0.000000    
